<svg xmlns="http://www.w3.org/2000/svg" width="900" height="340" viewBox="0 0 900 340" role="img" aria-label="Wit's Hedge Fund fake NAV chart">
  <rect width="900" height="340" fill="#fff9ee"/>
  <rect x="14" y="14" width="872" height="312" rx="18" fill="#ffffff" stroke="#171717" stroke-width="5"/>
  <rect x="86" y="64" width="770" height="206" fill="#fffef8" stroke="#171717" stroke-width="3"/>
  <line x1="86" y1="270" x2="856" y2="270" stroke="#171717" stroke-width="1.5" opacity="0.16"/>
  <text x="72" y="275" text-anchor="end" font-family="Arial, sans-serif" font-size="13" font-weight="800" fill="#68635d">$9,800</text>
  <line x1="86" y1="218.5" x2="856" y2="218.5" stroke="#171717" stroke-width="1.5" opacity="0.16"/>
  <text x="72" y="223.5" text-anchor="end" font-family="Arial, sans-serif" font-size="13" font-weight="800" fill="#68635d">$10,175</text>
  <line x1="86" y1="167" x2="856" y2="167" stroke="#171717" stroke-width="1.5" opacity="0.16"/>
  <text x="72" y="172" text-anchor="end" font-family="Arial, sans-serif" font-size="13" font-weight="800" fill="#68635d">$10,550</text>
  <line x1="86" y1="115.5" x2="856" y2="115.5" stroke="#171717" stroke-width="1.5" opacity="0.16"/>
  <text x="72" y="120.5" text-anchor="end" font-family="Arial, sans-serif" font-size="13" font-weight="800" fill="#68635d">$10,925</text>
  <line x1="86" y1="64" x2="856" y2="64" stroke="#171717" stroke-width="1.5" opacity="0.16"/>
  <text x="72" y="69" text-anchor="end" font-family="Arial, sans-serif" font-size="13" font-weight="800" fill="#68635d">$11,300</text>
  <polyline points="86,242.53 92.16,242.53 98.32,240.15 104.48,244.33 110.64,239.07 116.8,234.35 122.96,223.47 129.12,223.37 135.28,223.37 141.44,223.37 147.6,225.32 153.76,225.02 159.92,203.89 166.08,140.32 172.24,140.07 178.4,140.07 184.56,91.12 190.72,108.15 196.88,149.67 203.04,146.31 209.2,185.58 215.36,185.58 221.52,185.58 227.68,185.58 233.84,185.58 240,185.58 246.16,185.58 252.32,185.58 258.48,185.58 264.64,185.58 270.8,185.58 276.96,185.58 283.12,185.58 289.28,185.58 295.44,185.58 301.6,185.58 307.76,185.58 313.92,185.58 320.08,185.58 326.24,185.58 332.4,185.58 338.56,185.58 344.72,185.58 350.88,185.58 357.04,185.58 363.2,185.58 369.36,185.58 375.52,185.58 381.68,185.58 387.84,185.58 394,185.58 400.16,185.58 406.32,185.58 412.48,185.58 418.64,185.58 424.8,185.58 430.96,185.58 437.12,185.58 443.28,185.58 449.44,185.58 455.6,185.58 461.76,185.58 467.92,185.58 474.08,185.58 480.24,185.58 486.4,185.58 492.56,185.58 498.72,185.58 504.88,185.58 511.04,185.58 517.2,185.58 523.36,185.58 529.52,185.58 535.68,185.58 541.84,185.58 548,185.58 554.16,185.58 560.32,185.58 566.48,185.58 572.64,185.58 578.8,185.58 584.96,185.58 591.12,185.58 597.28,185.58 603.44,185.58 609.6,185.58 615.76,185.58 621.92,185.58 628.08,185.58 634.24,185.58 640.4,185.58 646.56,185.58 652.72,185.58 658.88,185.58 665.04,185.58 671.2,185.58 677.36,185.58 683.52,185.58 689.68,185.58 695.84,185.58 702,185.58 708.16,185.58 714.32,185.58 720.48,185.58 726.64,185.58 732.8,185.58 738.96,185.58 745.12,185.58 751.28,185.58 757.44,185.58 763.6,185.58 769.76,185.58 775.92,185.58 782.08,185.58 788.24,185.58 794.4,185.58 800.56,185.58 806.72,185.58 812.88,185.58 819.04,185.58 825.2,185.58 831.36,185.58 837.52,185.58 843.68,185.58 849.84,185.58 856,185.58" fill="none" stroke="#ff5a7a" stroke-width="8" stroke-linecap="round" stroke-linejoin="round"/>
  <circle cx="86" cy="242.53" r="8" fill="#15b8c8" stroke="#171717" stroke-width="3"/>
  <circle cx="92.16" cy="242.53" r="8" fill="#15b8c8" stroke="#171717" stroke-width="3"/>
  <circle cx="98.32" cy="240.15" r="8" fill="#15b8c8" stroke="#171717" stroke-width="3"/>
  <circle cx="104.48" cy="244.33" r="8" fill="#15b8c8" stroke="#171717" stroke-width="3"/>
  <circle cx="110.64" cy="239.07" r="8" fill="#15b8c8" stroke="#171717" stroke-width="3"/>
  <circle cx="116.8" cy="234.35" r="8" fill="#15b8c8" stroke="#171717" stroke-width="3"/>
  <circle cx="122.96" cy="223.47" r="8" fill="#15b8c8" stroke="#171717" stroke-width="3"/>
  <circle cx="129.12" cy="223.37" r="8" fill="#15b8c8" stroke="#171717" stroke-width="3"/>
  <circle cx="135.28" cy="223.37" r="8" fill="#15b8c8" stroke="#171717" stroke-width="3"/>
  <circle cx="141.44" cy="223.37" r="8" fill="#15b8c8" stroke="#171717" stroke-width="3"/>
  <circle cx="147.6" cy="225.32" r="8" fill="#15b8c8" stroke="#171717" stroke-width="3"/>
  <circle cx="153.76" cy="225.02" r="8" fill="#15b8c8" stroke="#171717" stroke-width="3"/>
  <circle cx="159.92" cy="203.89" r="8" fill="#15b8c8" stroke="#171717" stroke-width="3"/>
  <circle cx="166.08" cy="140.32" r="8" fill="#15b8c8" stroke="#171717" stroke-width="3"/>
  <circle cx="172.24" cy="140.07" r="8" fill="#15b8c8" stroke="#171717" stroke-width="3"/>
  <circle cx="178.4" cy="140.07" r="8" fill="#15b8c8" stroke="#171717" stroke-width="3"/>
  <circle cx="184.56" cy="91.12" r="8" fill="#15b8c8" stroke="#171717" stroke-width="3"/>
  <circle cx="190.72" cy="108.15" r="8" fill="#15b8c8" stroke="#171717" stroke-width="3"/>
  <circle cx="196.88" cy="149.67" r="8" fill="#15b8c8" stroke="#171717" stroke-width="3"/>
  <circle cx="203.04" cy="146.31" r="8" fill="#15b8c8" stroke="#171717" stroke-width="3"/>
  <circle cx="209.2" cy="185.58" r="8" fill="#15b8c8" stroke="#171717" stroke-width="3"/>
  <circle cx="215.36" cy="185.58" r="8" fill="#15b8c8" stroke="#171717" stroke-width="3"/>
  <circle cx="221.52" cy="185.58" r="8" fill="#15b8c8" stroke="#171717" stroke-width="3"/>
  <circle cx="227.68" cy="185.58" r="8" fill="#15b8c8" stroke="#171717" stroke-width="3"/>
  <circle cx="233.84" cy="185.58" r="8" fill="#15b8c8" stroke="#171717" stroke-width="3"/>
  <circle cx="240" cy="185.58" r="8" fill="#15b8c8" stroke="#171717" stroke-width="3"/>
  <circle cx="246.16" cy="185.58" r="8" fill="#15b8c8" stroke="#171717" stroke-width="3"/>
  <circle cx="252.32" cy="185.58" r="8" fill="#15b8c8" stroke="#171717" stroke-width="3"/>
  <circle cx="258.48" cy="185.58" r="8" fill="#15b8c8" stroke="#171717" stroke-width="3"/>
  <circle cx="264.64" cy="185.58" r="8" fill="#15b8c8" stroke="#171717" stroke-width="3"/>
  <circle cx="270.8" cy="185.58" r="8" fill="#15b8c8" stroke="#171717" stroke-width="3"/>
  <circle cx="276.96" cy="185.58" r="8" fill="#15b8c8" stroke="#171717" stroke-width="3"/>
  <circle cx="283.12" cy="185.58" r="8" fill="#15b8c8" stroke="#171717" stroke-width="3"/>
  <circle cx="289.28" cy="185.58" r="8" fill="#15b8c8" stroke="#171717" stroke-width="3"/>
  <circle cx="295.44" cy="185.58" r="8" fill="#15b8c8" stroke="#171717" stroke-width="3"/>
  <circle cx="301.6" cy="185.58" r="8" fill="#15b8c8" stroke="#171717" stroke-width="3"/>
  <circle cx="307.76" cy="185.58" r="8" fill="#15b8c8" stroke="#171717" stroke-width="3"/>
  <circle cx="313.92" cy="185.58" r="8" fill="#15b8c8" stroke="#171717" stroke-width="3"/>
  <circle cx="320.08" cy="185.58" r="8" fill="#15b8c8" stroke="#171717" stroke-width="3"/>
  <circle cx="326.24" cy="185.58" r="8" fill="#15b8c8" stroke="#171717" stroke-width="3"/>
  <circle cx="332.4" cy="185.58" r="8" fill="#15b8c8" stroke="#171717" stroke-width="3"/>
  <circle cx="338.56" cy="185.58" r="8" fill="#15b8c8" stroke="#171717" stroke-width="3"/>
  <circle cx="344.72" cy="185.58" r="8" fill="#15b8c8" stroke="#171717" stroke-width="3"/>
  <circle cx="350.88" cy="185.58" r="8" fill="#15b8c8" stroke="#171717" stroke-width="3"/>
  <circle cx="357.04" cy="185.58" r="8" fill="#15b8c8" stroke="#171717" stroke-width="3"/>
  <circle cx="363.2" cy="185.58" r="8" fill="#15b8c8" stroke="#171717" stroke-width="3"/>
  <circle cx="369.36" cy="185.58" r="8" fill="#15b8c8" stroke="#171717" stroke-width="3"/>
  <circle cx="375.52" cy="185.58" r="8" fill="#15b8c8" stroke="#171717" stroke-width="3"/>
  <circle cx="381.68" cy="185.58" r="8" fill="#15b8c8" stroke="#171717" stroke-width="3"/>
  <circle cx="387.84" cy="185.58" r="8" fill="#15b8c8" stroke="#171717" stroke-width="3"/>
  <circle cx="394" cy="185.58" r="8" fill="#15b8c8" stroke="#171717" stroke-width="3"/>
  <circle cx="400.16" cy="185.58" r="8" fill="#15b8c8" stroke="#171717" stroke-width="3"/>
  <circle cx="406.32" cy="185.58" r="8" fill="#15b8c8" stroke="#171717" stroke-width="3"/>
  <circle cx="412.48" cy="185.58" r="8" fill="#15b8c8" stroke="#171717" stroke-width="3"/>
  <circle cx="418.64" cy="185.58" r="8" fill="#15b8c8" stroke="#171717" stroke-width="3"/>
  <circle cx="424.8" cy="185.58" r="8" fill="#15b8c8" stroke="#171717" stroke-width="3"/>
  <circle cx="430.96" cy="185.58" r="8" fill="#15b8c8" stroke="#171717" stroke-width="3"/>
  <circle cx="437.12" cy="185.58" r="8" fill="#15b8c8" stroke="#171717" stroke-width="3"/>
  <circle cx="443.28" cy="185.58" r="8" fill="#15b8c8" stroke="#171717" stroke-width="3"/>
  <circle cx="449.44" cy="185.58" r="8" fill="#15b8c8" stroke="#171717" stroke-width="3"/>
  <circle cx="455.6" cy="185.58" r="8" fill="#15b8c8" stroke="#171717" stroke-width="3"/>
  <circle cx="461.76" cy="185.58" r="8" fill="#15b8c8" stroke="#171717" stroke-width="3"/>
  <circle cx="467.92" cy="185.58" r="8" fill="#15b8c8" stroke="#171717" stroke-width="3"/>
  <circle cx="474.08" cy="185.58" r="8" fill="#15b8c8" stroke="#171717" stroke-width="3"/>
  <circle cx="480.24" cy="185.58" r="8" fill="#15b8c8" stroke="#171717" stroke-width="3"/>
  <circle cx="486.4" cy="185.58" r="8" fill="#15b8c8" stroke="#171717" stroke-width="3"/>
  <circle cx="492.56" cy="185.58" r="8" fill="#15b8c8" stroke="#171717" stroke-width="3"/>
  <circle cx="498.72" cy="185.58" r="8" fill="#15b8c8" stroke="#171717" stroke-width="3"/>
  <circle cx="504.88" cy="185.58" r="8" fill="#15b8c8" stroke="#171717" stroke-width="3"/>
  <circle cx="511.04" cy="185.58" r="8" fill="#15b8c8" stroke="#171717" stroke-width="3"/>
  <circle cx="517.2" cy="185.58" r="8" fill="#15b8c8" stroke="#171717" stroke-width="3"/>
  <circle cx="523.36" cy="185.58" r="8" fill="#15b8c8" stroke="#171717" stroke-width="3"/>
  <circle cx="529.52" cy="185.58" r="8" fill="#15b8c8" stroke="#171717" stroke-width="3"/>
  <circle cx="535.68" cy="185.58" r="8" fill="#15b8c8" stroke="#171717" stroke-width="3"/>
  <circle cx="541.84" cy="185.58" r="8" fill="#15b8c8" stroke="#171717" stroke-width="3"/>
  <circle cx="548" cy="185.58" r="8" fill="#15b8c8" stroke="#171717" stroke-width="3"/>
  <circle cx="554.16" cy="185.58" r="8" fill="#15b8c8" stroke="#171717" stroke-width="3"/>
  <circle cx="560.32" cy="185.58" r="8" fill="#15b8c8" stroke="#171717" stroke-width="3"/>
  <circle cx="566.48" cy="185.58" r="8" fill="#15b8c8" stroke="#171717" stroke-width="3"/>
  <circle cx="572.64" cy="185.58" r="8" fill="#15b8c8" stroke="#171717" stroke-width="3"/>
  <circle cx="578.8" cy="185.58" r="8" fill="#15b8c8" stroke="#171717" stroke-width="3"/>
  <circle cx="584.96" cy="185.58" r="8" fill="#15b8c8" stroke="#171717" stroke-width="3"/>
  <circle cx="591.12" cy="185.58" r="8" fill="#15b8c8" stroke="#171717" stroke-width="3"/>
  <circle cx="597.28" cy="185.58" r="8" fill="#15b8c8" stroke="#171717" stroke-width="3"/>
  <circle cx="603.44" cy="185.58" r="8" fill="#15b8c8" stroke="#171717" stroke-width="3"/>
  <circle cx="609.6" cy="185.58" r="8" fill="#15b8c8" stroke="#171717" stroke-width="3"/>
  <circle cx="615.76" cy="185.58" r="8" fill="#15b8c8" stroke="#171717" stroke-width="3"/>
  <circle cx="621.92" cy="185.58" r="8" fill="#15b8c8" stroke="#171717" stroke-width="3"/>
  <circle cx="628.08" cy="185.58" r="8" fill="#15b8c8" stroke="#171717" stroke-width="3"/>
  <circle cx="634.24" cy="185.58" r="8" fill="#15b8c8" stroke="#171717" stroke-width="3"/>
  <circle cx="640.4" cy="185.58" r="8" fill="#15b8c8" stroke="#171717" stroke-width="3"/>
  <circle cx="646.56" cy="185.58" r="8" fill="#15b8c8" stroke="#171717" stroke-width="3"/>
  <circle cx="652.72" cy="185.58" r="8" fill="#15b8c8" stroke="#171717" stroke-width="3"/>
  <circle cx="658.88" cy="185.58" r="8" fill="#15b8c8" stroke="#171717" stroke-width="3"/>
  <circle cx="665.04" cy="185.58" r="8" fill="#15b8c8" stroke="#171717" stroke-width="3"/>
  <circle cx="671.2" cy="185.58" r="8" fill="#15b8c8" stroke="#171717" stroke-width="3"/>
  <circle cx="677.36" cy="185.58" r="8" fill="#15b8c8" stroke="#171717" stroke-width="3"/>
  <circle cx="683.52" cy="185.58" r="8" fill="#15b8c8" stroke="#171717" stroke-width="3"/>
  <circle cx="689.68" cy="185.58" r="8" fill="#15b8c8" stroke="#171717" stroke-width="3"/>
  <circle cx="695.84" cy="185.58" r="8" fill="#15b8c8" stroke="#171717" stroke-width="3"/>
  <circle cx="702" cy="185.58" r="8" fill="#15b8c8" stroke="#171717" stroke-width="3"/>
  <circle cx="708.16" cy="185.58" r="8" fill="#15b8c8" stroke="#171717" stroke-width="3"/>
  <circle cx="714.32" cy="185.58" r="8" fill="#15b8c8" stroke="#171717" stroke-width="3"/>
  <circle cx="720.48" cy="185.58" r="8" fill="#15b8c8" stroke="#171717" stroke-width="3"/>
  <circle cx="726.64" cy="185.58" r="8" fill="#15b8c8" stroke="#171717" stroke-width="3"/>
  <circle cx="732.8" cy="185.58" r="8" fill="#15b8c8" stroke="#171717" stroke-width="3"/>
  <circle cx="738.96" cy="185.58" r="8" fill="#15b8c8" stroke="#171717" stroke-width="3"/>
  <circle cx="745.12" cy="185.58" r="8" fill="#15b8c8" stroke="#171717" stroke-width="3"/>
  <circle cx="751.28" cy="185.58" r="8" fill="#15b8c8" stroke="#171717" stroke-width="3"/>
  <circle cx="757.44" cy="185.58" r="8" fill="#15b8c8" stroke="#171717" stroke-width="3"/>
  <circle cx="763.6" cy="185.58" r="8" fill="#15b8c8" stroke="#171717" stroke-width="3"/>
  <circle cx="769.76" cy="185.58" r="8" fill="#15b8c8" stroke="#171717" stroke-width="3"/>
  <circle cx="775.92" cy="185.58" r="8" fill="#15b8c8" stroke="#171717" stroke-width="3"/>
  <circle cx="782.08" cy="185.58" r="8" fill="#15b8c8" stroke="#171717" stroke-width="3"/>
  <circle cx="788.24" cy="185.58" r="8" fill="#15b8c8" stroke="#171717" stroke-width="3"/>
  <circle cx="794.4" cy="185.58" r="8" fill="#15b8c8" stroke="#171717" stroke-width="3"/>
  <circle cx="800.56" cy="185.58" r="8" fill="#15b8c8" stroke="#171717" stroke-width="3"/>
  <circle cx="806.72" cy="185.58" r="8" fill="#15b8c8" stroke="#171717" stroke-width="3"/>
  <circle cx="812.88" cy="185.58" r="8" fill="#15b8c8" stroke="#171717" stroke-width="3"/>
  <circle cx="819.04" cy="185.58" r="8" fill="#15b8c8" stroke="#171717" stroke-width="3"/>
  <circle cx="825.2" cy="185.58" r="8" fill="#15b8c8" stroke="#171717" stroke-width="3"/>
  <circle cx="831.36" cy="185.58" r="8" fill="#15b8c8" stroke="#171717" stroke-width="3"/>
  <circle cx="837.52" cy="185.58" r="8" fill="#15b8c8" stroke="#171717" stroke-width="3"/>
  <circle cx="843.68" cy="185.58" r="8" fill="#15b8c8" stroke="#171717" stroke-width="3"/>
  <circle cx="849.84" cy="185.58" r="8" fill="#15b8c8" stroke="#171717" stroke-width="3"/>
  <circle cx="856" cy="185.58" r="8" fill="#15b8c8" stroke="#171717" stroke-width="3"/>
  <text x="86" y="42" font-family="Arial, sans-serif" font-size="18" font-weight="900" fill="#171717">WIT'S HEDGE FUND NAV</text>
  <text x="856" y="42" text-anchor="end" font-family="Arial, sans-serif" font-size="18" font-weight="900" fill="#171717">$10,414.72 (+4.15%)</text>
  <text x="86" y="310" text-anchor="start" font-family="Arial, sans-serif" font-size="15" font-weight="900" fill="#68635d">May 16</text>
  <text x="856" y="310" text-anchor="end" font-family="Arial, sans-serif" font-size="15" font-weight="900" fill="#68635d">Sep 19</text>
  <text x="450" y="328" text-anchor="middle" font-family="Arial, sans-serif" font-size="12" font-weight="800" fill="#9a948c">fake returns, real price marks</text>
</svg>
