<svg xmlns="http://www.w3.org/2000/svg" width="900" height="340" viewBox="0 0 900 340" role="img" aria-label="Wit's Hedge Fund fake NAV chart">
  <rect width="900" height="340" fill="#fff9ee"/>
  <rect x="14" y="14" width="872" height="312" rx="18" fill="#ffffff" stroke="#171717" stroke-width="5"/>
  <rect x="86" y="64" width="770" height="206" fill="#fffef8" stroke="#171717" stroke-width="3"/>
  <line x1="86" y1="270" x2="856" y2="270" stroke="#171717" stroke-width="1.5" opacity="0.16"/>
  <text x="72" y="275" text-anchor="end" font-family="Arial, sans-serif" font-size="13" font-weight="800" fill="#68635d">$9,800</text>
  <line x1="86" y1="218.5" x2="856" y2="218.5" stroke="#171717" stroke-width="1.5" opacity="0.16"/>
  <text x="72" y="223.5" text-anchor="end" font-family="Arial, sans-serif" font-size="13" font-weight="800" fill="#68635d">$10,175</text>
  <line x1="86" y1="167" x2="856" y2="167" stroke="#171717" stroke-width="1.5" opacity="0.16"/>
  <text x="72" y="172" text-anchor="end" font-family="Arial, sans-serif" font-size="13" font-weight="800" fill="#68635d">$10,550</text>
  <line x1="86" y1="115.5" x2="856" y2="115.5" stroke="#171717" stroke-width="1.5" opacity="0.16"/>
  <text x="72" y="120.5" text-anchor="end" font-family="Arial, sans-serif" font-size="13" font-weight="800" fill="#68635d">$10,925</text>
  <line x1="86" y1="64" x2="856" y2="64" stroke="#171717" stroke-width="1.5" opacity="0.16"/>
  <text x="72" y="69" text-anchor="end" font-family="Arial, sans-serif" font-size="13" font-weight="800" fill="#68635d">$11,300</text>
  <polyline points="86,242.53 91.92,242.53 97.85,240.15 103.77,244.33 109.69,239.07 115.62,234.35 121.54,223.47 127.46,223.37 133.38,223.37 139.31,223.37 145.23,225.32 151.15,225.02 157.08,203.89 163,140.32 168.92,140.07 174.85,140.07 180.77,91.12 186.69,108.15 192.62,149.67 198.54,146.31 204.46,185.58 210.38,185.58 216.31,185.58 222.23,185.58 228.15,185.58 234.08,185.58 240,185.58 245.92,185.58 251.85,185.58 257.77,185.58 263.69,185.58 269.62,185.58 275.54,185.58 281.46,185.58 287.38,185.58 293.31,185.58 299.23,185.58 305.15,185.58 311.08,185.58 317,185.58 322.92,185.58 328.85,185.58 334.77,185.58 340.69,185.58 346.62,185.58 352.54,185.58 358.46,185.58 364.38,185.58 370.31,185.58 376.23,185.58 382.15,185.58 388.08,185.58 394,185.58 399.92,185.58 405.85,185.58 411.77,185.58 417.69,185.58 423.62,185.58 429.54,185.58 435.46,185.58 441.38,185.58 447.31,185.58 453.23,185.58 459.15,185.58 465.08,185.58 471,185.58 476.92,185.58 482.85,185.58 488.77,185.58 494.69,185.58 500.62,185.58 506.54,185.58 512.46,185.58 518.38,185.58 524.31,185.58 530.23,185.58 536.15,185.58 542.08,185.58 548,185.58 553.92,185.58 559.85,185.58 565.77,185.58 571.69,185.58 577.62,185.58 583.54,185.58 589.46,185.58 595.38,185.58 601.31,185.58 607.23,185.58 613.15,185.58 619.08,185.58 625,185.58 630.92,185.58 636.85,185.58 642.77,185.58 648.69,185.58 654.62,185.58 660.54,185.58 666.46,185.58 672.38,185.58 678.31,185.58 684.23,185.58 690.15,185.58 696.08,185.58 702,185.58 707.92,185.58 713.85,185.58 719.77,185.58 725.69,185.58 731.62,185.58 737.54,185.58 743.46,185.58 749.38,185.58 755.31,185.58 761.23,185.58 767.15,185.58 773.08,185.58 779,185.58 784.92,185.58 790.85,185.58 796.77,185.58 802.69,185.58 808.62,185.58 814.54,185.58 820.46,185.58 826.38,185.58 832.31,185.58 838.23,185.58 844.15,185.58 850.08,185.58 856,185.58" fill="none" stroke="#ff5a7a" stroke-width="8" stroke-linecap="round" stroke-linejoin="round"/>
  <circle cx="86" cy="242.53" r="8" fill="#15b8c8" stroke="#171717" stroke-width="3"/>
  <circle cx="91.92" cy="242.53" r="8" fill="#15b8c8" stroke="#171717" stroke-width="3"/>
  <circle cx="97.85" cy="240.15" r="8" fill="#15b8c8" stroke="#171717" stroke-width="3"/>
  <circle cx="103.77" cy="244.33" r="8" fill="#15b8c8" stroke="#171717" stroke-width="3"/>
  <circle cx="109.69" cy="239.07" r="8" fill="#15b8c8" stroke="#171717" stroke-width="3"/>
  <circle cx="115.62" cy="234.35" r="8" fill="#15b8c8" stroke="#171717" stroke-width="3"/>
  <circle cx="121.54" cy="223.47" r="8" fill="#15b8c8" stroke="#171717" stroke-width="3"/>
  <circle cx="127.46" cy="223.37" r="8" fill="#15b8c8" stroke="#171717" stroke-width="3"/>
  <circle cx="133.38" cy="223.37" r="8" fill="#15b8c8" stroke="#171717" stroke-width="3"/>
  <circle cx="139.31" cy="223.37" r="8" fill="#15b8c8" stroke="#171717" stroke-width="3"/>
  <circle cx="145.23" cy="225.32" r="8" fill="#15b8c8" stroke="#171717" stroke-width="3"/>
  <circle cx="151.15" cy="225.02" r="8" fill="#15b8c8" stroke="#171717" stroke-width="3"/>
  <circle cx="157.08" cy="203.89" r="8" fill="#15b8c8" stroke="#171717" stroke-width="3"/>
  <circle cx="163" cy="140.32" r="8" fill="#15b8c8" stroke="#171717" stroke-width="3"/>
  <circle cx="168.92" cy="140.07" r="8" fill="#15b8c8" stroke="#171717" stroke-width="3"/>
  <circle cx="174.85" cy="140.07" r="8" fill="#15b8c8" stroke="#171717" stroke-width="3"/>
  <circle cx="180.77" cy="91.12" r="8" fill="#15b8c8" stroke="#171717" stroke-width="3"/>
  <circle cx="186.69" cy="108.15" r="8" fill="#15b8c8" stroke="#171717" stroke-width="3"/>
  <circle cx="192.62" cy="149.67" r="8" fill="#15b8c8" stroke="#171717" stroke-width="3"/>
  <circle cx="198.54" cy="146.31" r="8" fill="#15b8c8" stroke="#171717" stroke-width="3"/>
  <circle cx="204.46" cy="185.58" r="8" fill="#15b8c8" stroke="#171717" stroke-width="3"/>
  <circle cx="210.38" cy="185.58" r="8" fill="#15b8c8" stroke="#171717" stroke-width="3"/>
  <circle cx="216.31" cy="185.58" r="8" fill="#15b8c8" stroke="#171717" stroke-width="3"/>
  <circle cx="222.23" cy="185.58" r="8" fill="#15b8c8" stroke="#171717" stroke-width="3"/>
  <circle cx="228.15" cy="185.58" r="8" fill="#15b8c8" stroke="#171717" stroke-width="3"/>
  <circle cx="234.08" cy="185.58" r="8" fill="#15b8c8" stroke="#171717" stroke-width="3"/>
  <circle cx="240" cy="185.58" r="8" fill="#15b8c8" stroke="#171717" stroke-width="3"/>
  <circle cx="245.92" cy="185.58" r="8" fill="#15b8c8" stroke="#171717" stroke-width="3"/>
  <circle cx="251.85" cy="185.58" r="8" fill="#15b8c8" stroke="#171717" stroke-width="3"/>
  <circle cx="257.77" cy="185.58" r="8" fill="#15b8c8" stroke="#171717" stroke-width="3"/>
  <circle cx="263.69" cy="185.58" r="8" fill="#15b8c8" stroke="#171717" stroke-width="3"/>
  <circle cx="269.62" cy="185.58" r="8" fill="#15b8c8" stroke="#171717" stroke-width="3"/>
  <circle cx="275.54" cy="185.58" r="8" fill="#15b8c8" stroke="#171717" stroke-width="3"/>
  <circle cx="281.46" cy="185.58" r="8" fill="#15b8c8" stroke="#171717" stroke-width="3"/>
  <circle cx="287.38" cy="185.58" r="8" fill="#15b8c8" stroke="#171717" stroke-width="3"/>
  <circle cx="293.31" cy="185.58" r="8" fill="#15b8c8" stroke="#171717" stroke-width="3"/>
  <circle cx="299.23" cy="185.58" r="8" fill="#15b8c8" stroke="#171717" stroke-width="3"/>
  <circle cx="305.15" cy="185.58" r="8" fill="#15b8c8" stroke="#171717" stroke-width="3"/>
  <circle cx="311.08" cy="185.58" r="8" fill="#15b8c8" stroke="#171717" stroke-width="3"/>
  <circle cx="317" cy="185.58" r="8" fill="#15b8c8" stroke="#171717" stroke-width="3"/>
  <circle cx="322.92" cy="185.58" r="8" fill="#15b8c8" stroke="#171717" stroke-width="3"/>
  <circle cx="328.85" cy="185.58" r="8" fill="#15b8c8" stroke="#171717" stroke-width="3"/>
  <circle cx="334.77" cy="185.58" r="8" fill="#15b8c8" stroke="#171717" stroke-width="3"/>
  <circle cx="340.69" cy="185.58" r="8" fill="#15b8c8" stroke="#171717" stroke-width="3"/>
  <circle cx="346.62" cy="185.58" r="8" fill="#15b8c8" stroke="#171717" stroke-width="3"/>
  <circle cx="352.54" cy="185.58" r="8" fill="#15b8c8" stroke="#171717" stroke-width="3"/>
  <circle cx="358.46" cy="185.58" r="8" fill="#15b8c8" stroke="#171717" stroke-width="3"/>
  <circle cx="364.38" cy="185.58" r="8" fill="#15b8c8" stroke="#171717" stroke-width="3"/>
  <circle cx="370.31" cy="185.58" r="8" fill="#15b8c8" stroke="#171717" stroke-width="3"/>
  <circle cx="376.23" cy="185.58" r="8" fill="#15b8c8" stroke="#171717" stroke-width="3"/>
  <circle cx="382.15" cy="185.58" r="8" fill="#15b8c8" stroke="#171717" stroke-width="3"/>
  <circle cx="388.08" cy="185.58" r="8" fill="#15b8c8" stroke="#171717" stroke-width="3"/>
  <circle cx="394" cy="185.58" r="8" fill="#15b8c8" stroke="#171717" stroke-width="3"/>
  <circle cx="399.92" cy="185.58" r="8" fill="#15b8c8" stroke="#171717" stroke-width="3"/>
  <circle cx="405.85" cy="185.58" r="8" fill="#15b8c8" stroke="#171717" stroke-width="3"/>
  <circle cx="411.77" cy="185.58" r="8" fill="#15b8c8" stroke="#171717" stroke-width="3"/>
  <circle cx="417.69" cy="185.58" r="8" fill="#15b8c8" stroke="#171717" stroke-width="3"/>
  <circle cx="423.62" cy="185.58" r="8" fill="#15b8c8" stroke="#171717" stroke-width="3"/>
  <circle cx="429.54" cy="185.58" r="8" fill="#15b8c8" stroke="#171717" stroke-width="3"/>
  <circle cx="435.46" cy="185.58" r="8" fill="#15b8c8" stroke="#171717" stroke-width="3"/>
  <circle cx="441.38" cy="185.58" r="8" fill="#15b8c8" stroke="#171717" stroke-width="3"/>
  <circle cx="447.31" cy="185.58" r="8" fill="#15b8c8" stroke="#171717" stroke-width="3"/>
  <circle cx="453.23" cy="185.58" r="8" fill="#15b8c8" stroke="#171717" stroke-width="3"/>
  <circle cx="459.15" cy="185.58" r="8" fill="#15b8c8" stroke="#171717" stroke-width="3"/>
  <circle cx="465.08" cy="185.58" r="8" fill="#15b8c8" stroke="#171717" stroke-width="3"/>
  <circle cx="471" cy="185.58" r="8" fill="#15b8c8" stroke="#171717" stroke-width="3"/>
  <circle cx="476.92" cy="185.58" r="8" fill="#15b8c8" stroke="#171717" stroke-width="3"/>
  <circle cx="482.85" cy="185.58" r="8" fill="#15b8c8" stroke="#171717" stroke-width="3"/>
  <circle cx="488.77" cy="185.58" r="8" fill="#15b8c8" stroke="#171717" stroke-width="3"/>
  <circle cx="494.69" cy="185.58" r="8" fill="#15b8c8" stroke="#171717" stroke-width="3"/>
  <circle cx="500.62" cy="185.58" r="8" fill="#15b8c8" stroke="#171717" stroke-width="3"/>
  <circle cx="506.54" cy="185.58" r="8" fill="#15b8c8" stroke="#171717" stroke-width="3"/>
  <circle cx="512.46" cy="185.58" r="8" fill="#15b8c8" stroke="#171717" stroke-width="3"/>
  <circle cx="518.38" cy="185.58" r="8" fill="#15b8c8" stroke="#171717" stroke-width="3"/>
  <circle cx="524.31" cy="185.58" r="8" fill="#15b8c8" stroke="#171717" stroke-width="3"/>
  <circle cx="530.23" cy="185.58" r="8" fill="#15b8c8" stroke="#171717" stroke-width="3"/>
  <circle cx="536.15" cy="185.58" r="8" fill="#15b8c8" stroke="#171717" stroke-width="3"/>
  <circle cx="542.08" cy="185.58" r="8" fill="#15b8c8" stroke="#171717" stroke-width="3"/>
  <circle cx="548" cy="185.58" r="8" fill="#15b8c8" stroke="#171717" stroke-width="3"/>
  <circle cx="553.92" cy="185.58" r="8" fill="#15b8c8" stroke="#171717" stroke-width="3"/>
  <circle cx="559.85" cy="185.58" r="8" fill="#15b8c8" stroke="#171717" stroke-width="3"/>
  <circle cx="565.77" cy="185.58" r="8" fill="#15b8c8" stroke="#171717" stroke-width="3"/>
  <circle cx="571.69" cy="185.58" r="8" fill="#15b8c8" stroke="#171717" stroke-width="3"/>
  <circle cx="577.62" cy="185.58" r="8" fill="#15b8c8" stroke="#171717" stroke-width="3"/>
  <circle cx="583.54" cy="185.58" r="8" fill="#15b8c8" stroke="#171717" stroke-width="3"/>
  <circle cx="589.46" cy="185.58" r="8" fill="#15b8c8" stroke="#171717" stroke-width="3"/>
  <circle cx="595.38" cy="185.58" r="8" fill="#15b8c8" stroke="#171717" stroke-width="3"/>
  <circle cx="601.31" cy="185.58" r="8" fill="#15b8c8" stroke="#171717" stroke-width="3"/>
  <circle cx="607.23" cy="185.58" r="8" fill="#15b8c8" stroke="#171717" stroke-width="3"/>
  <circle cx="613.15" cy="185.58" r="8" fill="#15b8c8" stroke="#171717" stroke-width="3"/>
  <circle cx="619.08" cy="185.58" r="8" fill="#15b8c8" stroke="#171717" stroke-width="3"/>
  <circle cx="625" cy="185.58" r="8" fill="#15b8c8" stroke="#171717" stroke-width="3"/>
  <circle cx="630.92" cy="185.58" r="8" fill="#15b8c8" stroke="#171717" stroke-width="3"/>
  <circle cx="636.85" cy="185.58" r="8" fill="#15b8c8" stroke="#171717" stroke-width="3"/>
  <circle cx="642.77" cy="185.58" r="8" fill="#15b8c8" stroke="#171717" stroke-width="3"/>
  <circle cx="648.69" cy="185.58" r="8" fill="#15b8c8" stroke="#171717" stroke-width="3"/>
  <circle cx="654.62" cy="185.58" r="8" fill="#15b8c8" stroke="#171717" stroke-width="3"/>
  <circle cx="660.54" cy="185.58" r="8" fill="#15b8c8" stroke="#171717" stroke-width="3"/>
  <circle cx="666.46" cy="185.58" r="8" fill="#15b8c8" stroke="#171717" stroke-width="3"/>
  <circle cx="672.38" cy="185.58" r="8" fill="#15b8c8" stroke="#171717" stroke-width="3"/>
  <circle cx="678.31" cy="185.58" r="8" fill="#15b8c8" stroke="#171717" stroke-width="3"/>
  <circle cx="684.23" cy="185.58" r="8" fill="#15b8c8" stroke="#171717" stroke-width="3"/>
  <circle cx="690.15" cy="185.58" r="8" fill="#15b8c8" stroke="#171717" stroke-width="3"/>
  <circle cx="696.08" cy="185.58" r="8" fill="#15b8c8" stroke="#171717" stroke-width="3"/>
  <circle cx="702" cy="185.58" r="8" fill="#15b8c8" stroke="#171717" stroke-width="3"/>
  <circle cx="707.92" cy="185.58" r="8" fill="#15b8c8" stroke="#171717" stroke-width="3"/>
  <circle cx="713.85" cy="185.58" r="8" fill="#15b8c8" stroke="#171717" stroke-width="3"/>
  <circle cx="719.77" cy="185.58" r="8" fill="#15b8c8" stroke="#171717" stroke-width="3"/>
  <circle cx="725.69" cy="185.58" r="8" fill="#15b8c8" stroke="#171717" stroke-width="3"/>
  <circle cx="731.62" cy="185.58" r="8" fill="#15b8c8" stroke="#171717" stroke-width="3"/>
  <circle cx="737.54" cy="185.58" r="8" fill="#15b8c8" stroke="#171717" stroke-width="3"/>
  <circle cx="743.46" cy="185.58" r="8" fill="#15b8c8" stroke="#171717" stroke-width="3"/>
  <circle cx="749.38" cy="185.58" r="8" fill="#15b8c8" stroke="#171717" stroke-width="3"/>
  <circle cx="755.31" cy="185.58" r="8" fill="#15b8c8" stroke="#171717" stroke-width="3"/>
  <circle cx="761.23" cy="185.58" r="8" fill="#15b8c8" stroke="#171717" stroke-width="3"/>
  <circle cx="767.15" cy="185.58" r="8" fill="#15b8c8" stroke="#171717" stroke-width="3"/>
  <circle cx="773.08" cy="185.58" r="8" fill="#15b8c8" stroke="#171717" stroke-width="3"/>
  <circle cx="779" cy="185.58" r="8" fill="#15b8c8" stroke="#171717" stroke-width="3"/>
  <circle cx="784.92" cy="185.58" r="8" fill="#15b8c8" stroke="#171717" stroke-width="3"/>
  <circle cx="790.85" cy="185.58" r="8" fill="#15b8c8" stroke="#171717" stroke-width="3"/>
  <circle cx="796.77" cy="185.58" r="8" fill="#15b8c8" stroke="#171717" stroke-width="3"/>
  <circle cx="802.69" cy="185.58" r="8" fill="#15b8c8" stroke="#171717" stroke-width="3"/>
  <circle cx="808.62" cy="185.58" r="8" fill="#15b8c8" stroke="#171717" stroke-width="3"/>
  <circle cx="814.54" cy="185.58" r="8" fill="#15b8c8" stroke="#171717" stroke-width="3"/>
  <circle cx="820.46" cy="185.58" r="8" fill="#15b8c8" stroke="#171717" stroke-width="3"/>
  <circle cx="826.38" cy="185.58" r="8" fill="#15b8c8" stroke="#171717" stroke-width="3"/>
  <circle cx="832.31" cy="185.58" r="8" fill="#15b8c8" stroke="#171717" stroke-width="3"/>
  <circle cx="838.23" cy="185.58" r="8" fill="#15b8c8" stroke="#171717" stroke-width="3"/>
  <circle cx="844.15" cy="185.58" r="8" fill="#15b8c8" stroke="#171717" stroke-width="3"/>
  <circle cx="850.08" cy="185.58" r="8" fill="#15b8c8" stroke="#171717" stroke-width="3"/>
  <circle cx="856" cy="185.58" r="8" fill="#15b8c8" stroke="#171717" stroke-width="3"/>
  <text x="86" y="42" font-family="Arial, sans-serif" font-size="18" font-weight="900" fill="#171717">WIT'S HEDGE FUND NAV</text>
  <text x="856" y="42" text-anchor="end" font-family="Arial, sans-serif" font-size="18" font-weight="900" fill="#171717">$10,414.72 (+4.15%)</text>
  <text x="86" y="310" text-anchor="start" font-family="Arial, sans-serif" font-size="15" font-weight="900" fill="#68635d">May 16</text>
  <text x="856" y="310" text-anchor="end" font-family="Arial, sans-serif" font-size="15" font-weight="900" fill="#68635d">Oct 3</text>
  <text x="450" y="328" text-anchor="middle" font-family="Arial, sans-serif" font-size="12" font-weight="800" fill="#9a948c">fake returns, real price marks</text>
</svg>
