<svg xmlns="http://www.w3.org/2000/svg" width="900" height="340" viewBox="0 0 900 340" role="img" aria-label="Wit's Hedge Fund fake NAV chart">
  <rect width="900" height="340" fill="#fff9ee"/>
  <rect x="14" y="14" width="872" height="312" rx="18" fill="#ffffff" stroke="#171717" stroke-width="5"/>
  <rect x="86" y="64" width="770" height="206" fill="#fffef8" stroke="#171717" stroke-width="3"/>
  <line x1="86" y1="270" x2="856" y2="270" stroke="#171717" stroke-width="1.5" opacity="0.16"/>
  <text x="72" y="275" text-anchor="end" font-family="Arial, sans-serif" font-size="13" font-weight="800" fill="#68635d">$9,800</text>
  <line x1="86" y1="218.5" x2="856" y2="218.5" stroke="#171717" stroke-width="1.5" opacity="0.16"/>
  <text x="72" y="223.5" text-anchor="end" font-family="Arial, sans-serif" font-size="13" font-weight="800" fill="#68635d">$10,175</text>
  <line x1="86" y1="167" x2="856" y2="167" stroke="#171717" stroke-width="1.5" opacity="0.16"/>
  <text x="72" y="172" text-anchor="end" font-family="Arial, sans-serif" font-size="13" font-weight="800" fill="#68635d">$10,550</text>
  <line x1="86" y1="115.5" x2="856" y2="115.5" stroke="#171717" stroke-width="1.5" opacity="0.16"/>
  <text x="72" y="120.5" text-anchor="end" font-family="Arial, sans-serif" font-size="13" font-weight="800" fill="#68635d">$10,925</text>
  <line x1="86" y1="64" x2="856" y2="64" stroke="#171717" stroke-width="1.5" opacity="0.16"/>
  <text x="72" y="69" text-anchor="end" font-family="Arial, sans-serif" font-size="13" font-weight="800" fill="#68635d">$11,300</text>
  <polyline points="86,242.53 96.13,242.53 106.26,240.15 116.39,244.33 126.53,239.07 136.66,234.35 146.79,223.47 156.92,223.37 167.05,223.37 177.18,223.37 187.32,225.32 197.45,225.02 207.58,203.89 217.71,140.32 227.84,140.07 237.97,140.07 248.11,91.12 258.24,108.15 268.37,149.67 278.5,146.31 288.63,185.58 298.76,185.58 308.89,185.58 319.03,185.58 329.16,185.58 339.29,185.58 349.42,185.58 359.55,185.58 369.68,185.58 379.82,185.58 389.95,185.58 400.08,185.58 410.21,185.58 420.34,185.58 430.47,185.58 440.61,185.58 450.74,185.58 460.87,185.58 471,185.58 481.13,185.58 491.26,185.58 501.39,185.58 511.53,185.58 521.66,185.58 531.79,185.58 541.92,185.58 552.05,185.58 562.18,185.58 572.32,185.58 582.45,185.58 592.58,185.58 602.71,185.58 612.84,185.58 622.97,185.58 633.11,185.58 643.24,185.58 653.37,185.58 663.5,185.58 673.63,185.58 683.76,185.58 693.89,185.58 704.03,185.58 714.16,185.58 724.29,185.58 734.42,185.58 744.55,185.58 754.68,185.58 764.82,185.58 774.95,185.58 785.08,185.58 795.21,185.58 805.34,185.58 815.47,185.58 825.61,185.58 835.74,185.58 845.87,185.58 856,185.58" fill="none" stroke="#ff5a7a" stroke-width="8" stroke-linecap="round" stroke-linejoin="round"/>
  <circle cx="86" cy="242.53" r="8" fill="#15b8c8" stroke="#171717" stroke-width="3"/>
  <circle cx="96.13" cy="242.53" r="8" fill="#15b8c8" stroke="#171717" stroke-width="3"/>
  <circle cx="106.26" cy="240.15" r="8" fill="#15b8c8" stroke="#171717" stroke-width="3"/>
  <circle cx="116.39" cy="244.33" r="8" fill="#15b8c8" stroke="#171717" stroke-width="3"/>
  <circle cx="126.53" cy="239.07" r="8" fill="#15b8c8" stroke="#171717" stroke-width="3"/>
  <circle cx="136.66" cy="234.35" r="8" fill="#15b8c8" stroke="#171717" stroke-width="3"/>
  <circle cx="146.79" cy="223.47" r="8" fill="#15b8c8" stroke="#171717" stroke-width="3"/>
  <circle cx="156.92" cy="223.37" r="8" fill="#15b8c8" stroke="#171717" stroke-width="3"/>
  <circle cx="167.05" cy="223.37" r="8" fill="#15b8c8" stroke="#171717" stroke-width="3"/>
  <circle cx="177.18" cy="223.37" r="8" fill="#15b8c8" stroke="#171717" stroke-width="3"/>
  <circle cx="187.32" cy="225.32" r="8" fill="#15b8c8" stroke="#171717" stroke-width="3"/>
  <circle cx="197.45" cy="225.02" r="8" fill="#15b8c8" stroke="#171717" stroke-width="3"/>
  <circle cx="207.58" cy="203.89" r="8" fill="#15b8c8" stroke="#171717" stroke-width="3"/>
  <circle cx="217.71" cy="140.32" r="8" fill="#15b8c8" stroke="#171717" stroke-width="3"/>
  <circle cx="227.84" cy="140.07" r="8" fill="#15b8c8" stroke="#171717" stroke-width="3"/>
  <circle cx="237.97" cy="140.07" r="8" fill="#15b8c8" stroke="#171717" stroke-width="3"/>
  <circle cx="248.11" cy="91.12" r="8" fill="#15b8c8" stroke="#171717" stroke-width="3"/>
  <circle cx="258.24" cy="108.15" r="8" fill="#15b8c8" stroke="#171717" stroke-width="3"/>
  <circle cx="268.37" cy="149.67" r="8" fill="#15b8c8" stroke="#171717" stroke-width="3"/>
  <circle cx="278.5" cy="146.31" r="8" fill="#15b8c8" stroke="#171717" stroke-width="3"/>
  <circle cx="288.63" cy="185.58" r="8" fill="#15b8c8" stroke="#171717" stroke-width="3"/>
  <circle cx="298.76" cy="185.58" r="8" fill="#15b8c8" stroke="#171717" stroke-width="3"/>
  <circle cx="308.89" cy="185.58" r="8" fill="#15b8c8" stroke="#171717" stroke-width="3"/>
  <circle cx="319.03" cy="185.58" r="8" fill="#15b8c8" stroke="#171717" stroke-width="3"/>
  <circle cx="329.16" cy="185.58" r="8" fill="#15b8c8" stroke="#171717" stroke-width="3"/>
  <circle cx="339.29" cy="185.58" r="8" fill="#15b8c8" stroke="#171717" stroke-width="3"/>
  <circle cx="349.42" cy="185.58" r="8" fill="#15b8c8" stroke="#171717" stroke-width="3"/>
  <circle cx="359.55" cy="185.58" r="8" fill="#15b8c8" stroke="#171717" stroke-width="3"/>
  <circle cx="369.68" cy="185.58" r="8" fill="#15b8c8" stroke="#171717" stroke-width="3"/>
  <circle cx="379.82" cy="185.58" r="8" fill="#15b8c8" stroke="#171717" stroke-width="3"/>
  <circle cx="389.95" cy="185.58" r="8" fill="#15b8c8" stroke="#171717" stroke-width="3"/>
  <circle cx="400.08" cy="185.58" r="8" fill="#15b8c8" stroke="#171717" stroke-width="3"/>
  <circle cx="410.21" cy="185.58" r="8" fill="#15b8c8" stroke="#171717" stroke-width="3"/>
  <circle cx="420.34" cy="185.58" r="8" fill="#15b8c8" stroke="#171717" stroke-width="3"/>
  <circle cx="430.47" cy="185.58" r="8" fill="#15b8c8" stroke="#171717" stroke-width="3"/>
  <circle cx="440.61" cy="185.58" r="8" fill="#15b8c8" stroke="#171717" stroke-width="3"/>
  <circle cx="450.74" cy="185.58" r="8" fill="#15b8c8" stroke="#171717" stroke-width="3"/>
  <circle cx="460.87" cy="185.58" r="8" fill="#15b8c8" stroke="#171717" stroke-width="3"/>
  <circle cx="471" cy="185.58" r="8" fill="#15b8c8" stroke="#171717" stroke-width="3"/>
  <circle cx="481.13" cy="185.58" r="8" fill="#15b8c8" stroke="#171717" stroke-width="3"/>
  <circle cx="491.26" cy="185.58" r="8" fill="#15b8c8" stroke="#171717" stroke-width="3"/>
  <circle cx="501.39" cy="185.58" r="8" fill="#15b8c8" stroke="#171717" stroke-width="3"/>
  <circle cx="511.53" cy="185.58" r="8" fill="#15b8c8" stroke="#171717" stroke-width="3"/>
  <circle cx="521.66" cy="185.58" r="8" fill="#15b8c8" stroke="#171717" stroke-width="3"/>
  <circle cx="531.79" cy="185.58" r="8" fill="#15b8c8" stroke="#171717" stroke-width="3"/>
  <circle cx="541.92" cy="185.58" r="8" fill="#15b8c8" stroke="#171717" stroke-width="3"/>
  <circle cx="552.05" cy="185.58" r="8" fill="#15b8c8" stroke="#171717" stroke-width="3"/>
  <circle cx="562.18" cy="185.58" r="8" fill="#15b8c8" stroke="#171717" stroke-width="3"/>
  <circle cx="572.32" cy="185.58" r="8" fill="#15b8c8" stroke="#171717" stroke-width="3"/>
  <circle cx="582.45" cy="185.58" r="8" fill="#15b8c8" stroke="#171717" stroke-width="3"/>
  <circle cx="592.58" cy="185.58" r="8" fill="#15b8c8" stroke="#171717" stroke-width="3"/>
  <circle cx="602.71" cy="185.58" r="8" fill="#15b8c8" stroke="#171717" stroke-width="3"/>
  <circle cx="612.84" cy="185.58" r="8" fill="#15b8c8" stroke="#171717" stroke-width="3"/>
  <circle cx="622.97" cy="185.58" r="8" fill="#15b8c8" stroke="#171717" stroke-width="3"/>
  <circle cx="633.11" cy="185.58" r="8" fill="#15b8c8" stroke="#171717" stroke-width="3"/>
  <circle cx="643.24" cy="185.58" r="8" fill="#15b8c8" stroke="#171717" stroke-width="3"/>
  <circle cx="653.37" cy="185.58" r="8" fill="#15b8c8" stroke="#171717" stroke-width="3"/>
  <circle cx="663.5" cy="185.58" r="8" fill="#15b8c8" stroke="#171717" stroke-width="3"/>
  <circle cx="673.63" cy="185.58" r="8" fill="#15b8c8" stroke="#171717" stroke-width="3"/>
  <circle cx="683.76" cy="185.58" r="8" fill="#15b8c8" stroke="#171717" stroke-width="3"/>
  <circle cx="693.89" cy="185.58" r="8" fill="#15b8c8" stroke="#171717" stroke-width="3"/>
  <circle cx="704.03" cy="185.58" r="8" fill="#15b8c8" stroke="#171717" stroke-width="3"/>
  <circle cx="714.16" cy="185.58" r="8" fill="#15b8c8" stroke="#171717" stroke-width="3"/>
  <circle cx="724.29" cy="185.58" r="8" fill="#15b8c8" stroke="#171717" stroke-width="3"/>
  <circle cx="734.42" cy="185.58" r="8" fill="#15b8c8" stroke="#171717" stroke-width="3"/>
  <circle cx="744.55" cy="185.58" r="8" fill="#15b8c8" stroke="#171717" stroke-width="3"/>
  <circle cx="754.68" cy="185.58" r="8" fill="#15b8c8" stroke="#171717" stroke-width="3"/>
  <circle cx="764.82" cy="185.58" r="8" fill="#15b8c8" stroke="#171717" stroke-width="3"/>
  <circle cx="774.95" cy="185.58" r="8" fill="#15b8c8" stroke="#171717" stroke-width="3"/>
  <circle cx="785.08" cy="185.58" r="8" fill="#15b8c8" stroke="#171717" stroke-width="3"/>
  <circle cx="795.21" cy="185.58" r="8" fill="#15b8c8" stroke="#171717" stroke-width="3"/>
  <circle cx="805.34" cy="185.58" r="8" fill="#15b8c8" stroke="#171717" stroke-width="3"/>
  <circle cx="815.47" cy="185.58" r="8" fill="#15b8c8" stroke="#171717" stroke-width="3"/>
  <circle cx="825.61" cy="185.58" r="8" fill="#15b8c8" stroke="#171717" stroke-width="3"/>
  <circle cx="835.74" cy="185.58" r="8" fill="#15b8c8" stroke="#171717" stroke-width="3"/>
  <circle cx="845.87" cy="185.58" r="8" fill="#15b8c8" stroke="#171717" stroke-width="3"/>
  <circle cx="856" cy="185.58" r="8" fill="#15b8c8" stroke="#171717" stroke-width="3"/>
  <text x="86" y="42" font-family="Arial, sans-serif" font-size="18" font-weight="900" fill="#171717">WIT'S HEDGE FUND NAV</text>
  <text x="856" y="42" text-anchor="end" font-family="Arial, sans-serif" font-size="18" font-weight="900" fill="#171717">$10,414.72 (+4.15%)</text>
  <text x="86" y="310" text-anchor="start" font-family="Arial, sans-serif" font-size="15" font-weight="900" fill="#68635d">May 16</text>
  <text x="856" y="310" text-anchor="end" font-family="Arial, sans-serif" font-size="15" font-weight="900" fill="#68635d">Jul 31</text>
  <text x="450" y="328" text-anchor="middle" font-family="Arial, sans-serif" font-size="12" font-weight="800" fill="#9a948c">fake returns, real price marks</text>
</svg>
