<svg xmlns="http://www.w3.org/2000/svg" width="900" height="340" viewBox="0 0 900 340" role="img" aria-label="Wit's Hedge Fund fake NAV chart">
  <rect width="900" height="340" fill="#fff9ee"/>
  <rect x="14" y="14" width="872" height="312" rx="18" fill="#ffffff" stroke="#171717" stroke-width="5"/>
  <rect x="86" y="64" width="770" height="206" fill="#fffef8" stroke="#171717" stroke-width="3"/>
  <line x1="86" y1="270" x2="856" y2="270" stroke="#171717" stroke-width="1.5" opacity="0.16"/>
  <text x="72" y="275" text-anchor="end" font-family="Arial, sans-serif" font-size="13" font-weight="800" fill="#68635d">$9,800</text>
  <line x1="86" y1="218.5" x2="856" y2="218.5" stroke="#171717" stroke-width="1.5" opacity="0.16"/>
  <text x="72" y="223.5" text-anchor="end" font-family="Arial, sans-serif" font-size="13" font-weight="800" fill="#68635d">$10,175</text>
  <line x1="86" y1="167" x2="856" y2="167" stroke="#171717" stroke-width="1.5" opacity="0.16"/>
  <text x="72" y="172" text-anchor="end" font-family="Arial, sans-serif" font-size="13" font-weight="800" fill="#68635d">$10,550</text>
  <line x1="86" y1="115.5" x2="856" y2="115.5" stroke="#171717" stroke-width="1.5" opacity="0.16"/>
  <text x="72" y="120.5" text-anchor="end" font-family="Arial, sans-serif" font-size="13" font-weight="800" fill="#68635d">$10,925</text>
  <line x1="86" y1="64" x2="856" y2="64" stroke="#171717" stroke-width="1.5" opacity="0.16"/>
  <text x="72" y="69" text-anchor="end" font-family="Arial, sans-serif" font-size="13" font-weight="800" fill="#68635d">$11,300</text>
  <polyline points="86,242.53 92.58,242.53 99.16,240.15 105.74,244.33 112.32,239.07 118.91,234.35 125.49,223.47 132.07,223.37 138.65,223.37 145.23,223.37 151.81,225.32 158.39,225.02 164.97,203.89 171.56,140.32 178.14,140.07 184.72,140.07 191.3,91.12 197.88,108.15 204.46,149.67 211.04,146.31 217.62,185.58 224.21,185.58 230.79,185.58 237.37,185.58 243.95,185.58 250.53,185.58 257.11,185.58 263.69,185.58 270.27,185.58 276.85,185.58 283.44,185.58 290.02,185.58 296.6,185.58 303.18,185.58 309.76,185.58 316.34,185.58 322.92,185.58 329.5,185.58 336.09,185.58 342.67,185.58 349.25,185.58 355.83,185.58 362.41,185.58 368.99,185.58 375.57,185.58 382.15,185.58 388.74,185.58 395.32,185.58 401.9,185.58 408.48,185.58 415.06,185.58 421.64,185.58 428.22,185.58 434.8,185.58 441.38,185.58 447.97,185.58 454.55,185.58 461.13,185.58 467.71,185.58 474.29,185.58 480.87,185.58 487.45,185.58 494.03,185.58 500.62,185.58 507.2,185.58 513.78,185.58 520.36,185.58 526.94,185.58 533.52,185.58 540.1,185.58 546.68,185.58 553.26,185.58 559.85,185.58 566.43,185.58 573.01,185.58 579.59,185.58 586.17,185.58 592.75,185.58 599.33,185.58 605.91,185.58 612.5,185.58 619.08,185.58 625.66,185.58 632.24,185.58 638.82,185.58 645.4,185.58 651.98,185.58 658.56,185.58 665.15,185.58 671.73,185.58 678.31,185.58 684.89,185.58 691.47,185.58 698.05,185.58 704.63,185.58 711.21,185.58 717.79,185.58 724.38,185.58 730.96,185.58 737.54,185.58 744.12,185.58 750.7,185.58 757.28,185.58 763.86,185.58 770.44,185.58 777.03,185.58 783.61,185.58 790.19,185.58 796.77,185.58 803.35,185.58 809.93,185.58 816.51,185.58 823.09,185.58 829.68,185.58 836.26,185.58 842.84,185.58 849.42,185.58 856,185.58" fill="none" stroke="#ff5a7a" stroke-width="8" stroke-linecap="round" stroke-linejoin="round"/>
  <circle cx="86" cy="242.53" r="8" fill="#15b8c8" stroke="#171717" stroke-width="3"/>
  <circle cx="92.58" cy="242.53" r="8" fill="#15b8c8" stroke="#171717" stroke-width="3"/>
  <circle cx="99.16" cy="240.15" r="8" fill="#15b8c8" stroke="#171717" stroke-width="3"/>
  <circle cx="105.74" cy="244.33" r="8" fill="#15b8c8" stroke="#171717" stroke-width="3"/>
  <circle cx="112.32" cy="239.07" r="8" fill="#15b8c8" stroke="#171717" stroke-width="3"/>
  <circle cx="118.91" cy="234.35" r="8" fill="#15b8c8" stroke="#171717" stroke-width="3"/>
  <circle cx="125.49" cy="223.47" r="8" fill="#15b8c8" stroke="#171717" stroke-width="3"/>
  <circle cx="132.07" cy="223.37" r="8" fill="#15b8c8" stroke="#171717" stroke-width="3"/>
  <circle cx="138.65" cy="223.37" r="8" fill="#15b8c8" stroke="#171717" stroke-width="3"/>
  <circle cx="145.23" cy="223.37" r="8" fill="#15b8c8" stroke="#171717" stroke-width="3"/>
  <circle cx="151.81" cy="225.32" r="8" fill="#15b8c8" stroke="#171717" stroke-width="3"/>
  <circle cx="158.39" cy="225.02" r="8" fill="#15b8c8" stroke="#171717" stroke-width="3"/>
  <circle cx="164.97" cy="203.89" r="8" fill="#15b8c8" stroke="#171717" stroke-width="3"/>
  <circle cx="171.56" cy="140.32" r="8" fill="#15b8c8" stroke="#171717" stroke-width="3"/>
  <circle cx="178.14" cy="140.07" r="8" fill="#15b8c8" stroke="#171717" stroke-width="3"/>
  <circle cx="184.72" cy="140.07" r="8" fill="#15b8c8" stroke="#171717" stroke-width="3"/>
  <circle cx="191.3" cy="91.12" r="8" fill="#15b8c8" stroke="#171717" stroke-width="3"/>
  <circle cx="197.88" cy="108.15" r="8" fill="#15b8c8" stroke="#171717" stroke-width="3"/>
  <circle cx="204.46" cy="149.67" r="8" fill="#15b8c8" stroke="#171717" stroke-width="3"/>
  <circle cx="211.04" cy="146.31" r="8" fill="#15b8c8" stroke="#171717" stroke-width="3"/>
  <circle cx="217.62" cy="185.58" r="8" fill="#15b8c8" stroke="#171717" stroke-width="3"/>
  <circle cx="224.21" cy="185.58" r="8" fill="#15b8c8" stroke="#171717" stroke-width="3"/>
  <circle cx="230.79" cy="185.58" r="8" fill="#15b8c8" stroke="#171717" stroke-width="3"/>
  <circle cx="237.37" cy="185.58" r="8" fill="#15b8c8" stroke="#171717" stroke-width="3"/>
  <circle cx="243.95" cy="185.58" r="8" fill="#15b8c8" stroke="#171717" stroke-width="3"/>
  <circle cx="250.53" cy="185.58" r="8" fill="#15b8c8" stroke="#171717" stroke-width="3"/>
  <circle cx="257.11" cy="185.58" r="8" fill="#15b8c8" stroke="#171717" stroke-width="3"/>
  <circle cx="263.69" cy="185.58" r="8" fill="#15b8c8" stroke="#171717" stroke-width="3"/>
  <circle cx="270.27" cy="185.58" r="8" fill="#15b8c8" stroke="#171717" stroke-width="3"/>
  <circle cx="276.85" cy="185.58" r="8" fill="#15b8c8" stroke="#171717" stroke-width="3"/>
  <circle cx="283.44" cy="185.58" r="8" fill="#15b8c8" stroke="#171717" stroke-width="3"/>
  <circle cx="290.02" cy="185.58" r="8" fill="#15b8c8" stroke="#171717" stroke-width="3"/>
  <circle cx="296.6" cy="185.58" r="8" fill="#15b8c8" stroke="#171717" stroke-width="3"/>
  <circle cx="303.18" cy="185.58" r="8" fill="#15b8c8" stroke="#171717" stroke-width="3"/>
  <circle cx="309.76" cy="185.58" r="8" fill="#15b8c8" stroke="#171717" stroke-width="3"/>
  <circle cx="316.34" cy="185.58" r="8" fill="#15b8c8" stroke="#171717" stroke-width="3"/>
  <circle cx="322.92" cy="185.58" r="8" fill="#15b8c8" stroke="#171717" stroke-width="3"/>
  <circle cx="329.5" cy="185.58" r="8" fill="#15b8c8" stroke="#171717" stroke-width="3"/>
  <circle cx="336.09" cy="185.58" r="8" fill="#15b8c8" stroke="#171717" stroke-width="3"/>
  <circle cx="342.67" cy="185.58" r="8" fill="#15b8c8" stroke="#171717" stroke-width="3"/>
  <circle cx="349.25" cy="185.58" r="8" fill="#15b8c8" stroke="#171717" stroke-width="3"/>
  <circle cx="355.83" cy="185.58" r="8" fill="#15b8c8" stroke="#171717" stroke-width="3"/>
  <circle cx="362.41" cy="185.58" r="8" fill="#15b8c8" stroke="#171717" stroke-width="3"/>
  <circle cx="368.99" cy="185.58" r="8" fill="#15b8c8" stroke="#171717" stroke-width="3"/>
  <circle cx="375.57" cy="185.58" r="8" fill="#15b8c8" stroke="#171717" stroke-width="3"/>
  <circle cx="382.15" cy="185.58" r="8" fill="#15b8c8" stroke="#171717" stroke-width="3"/>
  <circle cx="388.74" cy="185.58" r="8" fill="#15b8c8" stroke="#171717" stroke-width="3"/>
  <circle cx="395.32" cy="185.58" r="8" fill="#15b8c8" stroke="#171717" stroke-width="3"/>
  <circle cx="401.9" cy="185.58" r="8" fill="#15b8c8" stroke="#171717" stroke-width="3"/>
  <circle cx="408.48" cy="185.58" r="8" fill="#15b8c8" stroke="#171717" stroke-width="3"/>
  <circle cx="415.06" cy="185.58" r="8" fill="#15b8c8" stroke="#171717" stroke-width="3"/>
  <circle cx="421.64" cy="185.58" r="8" fill="#15b8c8" stroke="#171717" stroke-width="3"/>
  <circle cx="428.22" cy="185.58" r="8" fill="#15b8c8" stroke="#171717" stroke-width="3"/>
  <circle cx="434.8" cy="185.58" r="8" fill="#15b8c8" stroke="#171717" stroke-width="3"/>
  <circle cx="441.38" cy="185.58" r="8" fill="#15b8c8" stroke="#171717" stroke-width="3"/>
  <circle cx="447.97" cy="185.58" r="8" fill="#15b8c8" stroke="#171717" stroke-width="3"/>
  <circle cx="454.55" cy="185.58" r="8" fill="#15b8c8" stroke="#171717" stroke-width="3"/>
  <circle cx="461.13" cy="185.58" r="8" fill="#15b8c8" stroke="#171717" stroke-width="3"/>
  <circle cx="467.71" cy="185.58" r="8" fill="#15b8c8" stroke="#171717" stroke-width="3"/>
  <circle cx="474.29" cy="185.58" r="8" fill="#15b8c8" stroke="#171717" stroke-width="3"/>
  <circle cx="480.87" cy="185.58" r="8" fill="#15b8c8" stroke="#171717" stroke-width="3"/>
  <circle cx="487.45" cy="185.58" r="8" fill="#15b8c8" stroke="#171717" stroke-width="3"/>
  <circle cx="494.03" cy="185.58" r="8" fill="#15b8c8" stroke="#171717" stroke-width="3"/>
  <circle cx="500.62" cy="185.58" r="8" fill="#15b8c8" stroke="#171717" stroke-width="3"/>
  <circle cx="507.2" cy="185.58" r="8" fill="#15b8c8" stroke="#171717" stroke-width="3"/>
  <circle cx="513.78" cy="185.58" r="8" fill="#15b8c8" stroke="#171717" stroke-width="3"/>
  <circle cx="520.36" cy="185.58" r="8" fill="#15b8c8" stroke="#171717" stroke-width="3"/>
  <circle cx="526.94" cy="185.58" r="8" fill="#15b8c8" stroke="#171717" stroke-width="3"/>
  <circle cx="533.52" cy="185.58" r="8" fill="#15b8c8" stroke="#171717" stroke-width="3"/>
  <circle cx="540.1" cy="185.58" r="8" fill="#15b8c8" stroke="#171717" stroke-width="3"/>
  <circle cx="546.68" cy="185.58" r="8" fill="#15b8c8" stroke="#171717" stroke-width="3"/>
  <circle cx="553.26" cy="185.58" r="8" fill="#15b8c8" stroke="#171717" stroke-width="3"/>
  <circle cx="559.85" cy="185.58" r="8" fill="#15b8c8" stroke="#171717" stroke-width="3"/>
  <circle cx="566.43" cy="185.58" r="8" fill="#15b8c8" stroke="#171717" stroke-width="3"/>
  <circle cx="573.01" cy="185.58" r="8" fill="#15b8c8" stroke="#171717" stroke-width="3"/>
  <circle cx="579.59" cy="185.58" r="8" fill="#15b8c8" stroke="#171717" stroke-width="3"/>
  <circle cx="586.17" cy="185.58" r="8" fill="#15b8c8" stroke="#171717" stroke-width="3"/>
  <circle cx="592.75" cy="185.58" r="8" fill="#15b8c8" stroke="#171717" stroke-width="3"/>
  <circle cx="599.33" cy="185.58" r="8" fill="#15b8c8" stroke="#171717" stroke-width="3"/>
  <circle cx="605.91" cy="185.58" r="8" fill="#15b8c8" stroke="#171717" stroke-width="3"/>
  <circle cx="612.5" cy="185.58" r="8" fill="#15b8c8" stroke="#171717" stroke-width="3"/>
  <circle cx="619.08" cy="185.58" r="8" fill="#15b8c8" stroke="#171717" stroke-width="3"/>
  <circle cx="625.66" cy="185.58" r="8" fill="#15b8c8" stroke="#171717" stroke-width="3"/>
  <circle cx="632.24" cy="185.58" r="8" fill="#15b8c8" stroke="#171717" stroke-width="3"/>
  <circle cx="638.82" cy="185.58" r="8" fill="#15b8c8" stroke="#171717" stroke-width="3"/>
  <circle cx="645.4" cy="185.58" r="8" fill="#15b8c8" stroke="#171717" stroke-width="3"/>
  <circle cx="651.98" cy="185.58" r="8" fill="#15b8c8" stroke="#171717" stroke-width="3"/>
  <circle cx="658.56" cy="185.58" r="8" fill="#15b8c8" stroke="#171717" stroke-width="3"/>
  <circle cx="665.15" cy="185.58" r="8" fill="#15b8c8" stroke="#171717" stroke-width="3"/>
  <circle cx="671.73" cy="185.58" r="8" fill="#15b8c8" stroke="#171717" stroke-width="3"/>
  <circle cx="678.31" cy="185.58" r="8" fill="#15b8c8" stroke="#171717" stroke-width="3"/>
  <circle cx="684.89" cy="185.58" r="8" fill="#15b8c8" stroke="#171717" stroke-width="3"/>
  <circle cx="691.47" cy="185.58" r="8" fill="#15b8c8" stroke="#171717" stroke-width="3"/>
  <circle cx="698.05" cy="185.58" r="8" fill="#15b8c8" stroke="#171717" stroke-width="3"/>
  <circle cx="704.63" cy="185.58" r="8" fill="#15b8c8" stroke="#171717" stroke-width="3"/>
  <circle cx="711.21" cy="185.58" r="8" fill="#15b8c8" stroke="#171717" stroke-width="3"/>
  <circle cx="717.79" cy="185.58" r="8" fill="#15b8c8" stroke="#171717" stroke-width="3"/>
  <circle cx="724.38" cy="185.58" r="8" fill="#15b8c8" stroke="#171717" stroke-width="3"/>
  <circle cx="730.96" cy="185.58" r="8" fill="#15b8c8" stroke="#171717" stroke-width="3"/>
  <circle cx="737.54" cy="185.58" r="8" fill="#15b8c8" stroke="#171717" stroke-width="3"/>
  <circle cx="744.12" cy="185.58" r="8" fill="#15b8c8" stroke="#171717" stroke-width="3"/>
  <circle cx="750.7" cy="185.58" r="8" fill="#15b8c8" stroke="#171717" stroke-width="3"/>
  <circle cx="757.28" cy="185.58" r="8" fill="#15b8c8" stroke="#171717" stroke-width="3"/>
  <circle cx="763.86" cy="185.58" r="8" fill="#15b8c8" stroke="#171717" stroke-width="3"/>
  <circle cx="770.44" cy="185.58" r="8" fill="#15b8c8" stroke="#171717" stroke-width="3"/>
  <circle cx="777.03" cy="185.58" r="8" fill="#15b8c8" stroke="#171717" stroke-width="3"/>
  <circle cx="783.61" cy="185.58" r="8" fill="#15b8c8" stroke="#171717" stroke-width="3"/>
  <circle cx="790.19" cy="185.58" r="8" fill="#15b8c8" stroke="#171717" stroke-width="3"/>
  <circle cx="796.77" cy="185.58" r="8" fill="#15b8c8" stroke="#171717" stroke-width="3"/>
  <circle cx="803.35" cy="185.58" r="8" fill="#15b8c8" stroke="#171717" stroke-width="3"/>
  <circle cx="809.93" cy="185.58" r="8" fill="#15b8c8" stroke="#171717" stroke-width="3"/>
  <circle cx="816.51" cy="185.58" r="8" fill="#15b8c8" stroke="#171717" stroke-width="3"/>
  <circle cx="823.09" cy="185.58" r="8" fill="#15b8c8" stroke="#171717" stroke-width="3"/>
  <circle cx="829.68" cy="185.58" r="8" fill="#15b8c8" stroke="#171717" stroke-width="3"/>
  <circle cx="836.26" cy="185.58" r="8" fill="#15b8c8" stroke="#171717" stroke-width="3"/>
  <circle cx="842.84" cy="185.58" r="8" fill="#15b8c8" stroke="#171717" stroke-width="3"/>
  <circle cx="849.42" cy="185.58" r="8" fill="#15b8c8" stroke="#171717" stroke-width="3"/>
  <circle cx="856" cy="185.58" r="8" fill="#15b8c8" stroke="#171717" stroke-width="3"/>
  <text x="86" y="42" font-family="Arial, sans-serif" font-size="18" font-weight="900" fill="#171717">WIT'S HEDGE FUND NAV</text>
  <text x="856" y="42" text-anchor="end" font-family="Arial, sans-serif" font-size="18" font-weight="900" fill="#171717">$10,414.72 (+4.15%)</text>
  <text x="86" y="310" text-anchor="start" font-family="Arial, sans-serif" font-size="15" font-weight="900" fill="#68635d">May 16</text>
  <text x="856" y="310" text-anchor="end" font-family="Arial, sans-serif" font-size="15" font-weight="900" fill="#68635d">Sep 11</text>
  <text x="450" y="328" text-anchor="middle" font-family="Arial, sans-serif" font-size="12" font-weight="800" fill="#9a948c">fake returns, real price marks</text>
</svg>
