<svg xmlns="http://www.w3.org/2000/svg" width="900" height="340" viewBox="0 0 900 340" role="img" aria-label="Wit's Hedge Fund fake NAV chart">
  <rect width="900" height="340" fill="#fff9ee"/>
  <rect x="14" y="14" width="872" height="312" rx="18" fill="#ffffff" stroke="#171717" stroke-width="5"/>
  <rect x="86" y="64" width="770" height="206" fill="#fffef8" stroke="#171717" stroke-width="3"/>
  <line x1="86" y1="270" x2="856" y2="270" stroke="#171717" stroke-width="1.5" opacity="0.16"/>
  <text x="72" y="275" text-anchor="end" font-family="Arial, sans-serif" font-size="13" font-weight="800" fill="#68635d">$9,800</text>
  <line x1="86" y1="218.5" x2="856" y2="218.5" stroke="#171717" stroke-width="1.5" opacity="0.16"/>
  <text x="72" y="223.5" text-anchor="end" font-family="Arial, sans-serif" font-size="13" font-weight="800" fill="#68635d">$10,175</text>
  <line x1="86" y1="167" x2="856" y2="167" stroke="#171717" stroke-width="1.5" opacity="0.16"/>
  <text x="72" y="172" text-anchor="end" font-family="Arial, sans-serif" font-size="13" font-weight="800" fill="#68635d">$10,550</text>
  <line x1="86" y1="115.5" x2="856" y2="115.5" stroke="#171717" stroke-width="1.5" opacity="0.16"/>
  <text x="72" y="120.5" text-anchor="end" font-family="Arial, sans-serif" font-size="13" font-weight="800" fill="#68635d">$10,925</text>
  <line x1="86" y1="64" x2="856" y2="64" stroke="#171717" stroke-width="1.5" opacity="0.16"/>
  <text x="72" y="69" text-anchor="end" font-family="Arial, sans-serif" font-size="13" font-weight="800" fill="#68635d">$11,300</text>
  <polyline points="86,242.53 111.67,242.53 137.33,240.15 163,244.33 188.67,239.07 214.33,234.35 240,223.47 265.67,223.37 291.33,223.37 317,223.37 342.67,225.32 368.33,225.02 394,203.89 419.67,140.32 445.33,140.07 471,140.07 496.67,91.12 522.33,108.15 548,149.67 573.67,146.31 599.33,185.58 625,185.58 650.67,185.58 676.33,185.58 702,185.58 727.67,185.58 753.33,185.58 779,185.58 804.67,185.58 830.33,185.58 856,185.58" fill="none" stroke="#ff5a7a" stroke-width="8" stroke-linecap="round" stroke-linejoin="round"/>
  <circle cx="86" cy="242.53" r="8" fill="#15b8c8" stroke="#171717" stroke-width="3"/>
  <circle cx="111.67" cy="242.53" r="8" fill="#15b8c8" stroke="#171717" stroke-width="3"/>
  <circle cx="137.33" cy="240.15" r="8" fill="#15b8c8" stroke="#171717" stroke-width="3"/>
  <circle cx="163" cy="244.33" r="8" fill="#15b8c8" stroke="#171717" stroke-width="3"/>
  <circle cx="188.67" cy="239.07" r="8" fill="#15b8c8" stroke="#171717" stroke-width="3"/>
  <circle cx="214.33" cy="234.35" r="8" fill="#15b8c8" stroke="#171717" stroke-width="3"/>
  <circle cx="240" cy="223.47" r="8" fill="#15b8c8" stroke="#171717" stroke-width="3"/>
  <circle cx="265.67" cy="223.37" r="8" fill="#15b8c8" stroke="#171717" stroke-width="3"/>
  <circle cx="291.33" cy="223.37" r="8" fill="#15b8c8" stroke="#171717" stroke-width="3"/>
  <circle cx="317" cy="223.37" r="8" fill="#15b8c8" stroke="#171717" stroke-width="3"/>
  <circle cx="342.67" cy="225.32" r="8" fill="#15b8c8" stroke="#171717" stroke-width="3"/>
  <circle cx="368.33" cy="225.02" r="8" fill="#15b8c8" stroke="#171717" stroke-width="3"/>
  <circle cx="394" cy="203.89" r="8" fill="#15b8c8" stroke="#171717" stroke-width="3"/>
  <circle cx="419.67" cy="140.32" r="8" fill="#15b8c8" stroke="#171717" stroke-width="3"/>
  <circle cx="445.33" cy="140.07" r="8" fill="#15b8c8" stroke="#171717" stroke-width="3"/>
  <circle cx="471" cy="140.07" r="8" fill="#15b8c8" stroke="#171717" stroke-width="3"/>
  <circle cx="496.67" cy="91.12" r="8" fill="#15b8c8" stroke="#171717" stroke-width="3"/>
  <circle cx="522.33" cy="108.15" r="8" fill="#15b8c8" stroke="#171717" stroke-width="3"/>
  <circle cx="548" cy="149.67" r="8" fill="#15b8c8" stroke="#171717" stroke-width="3"/>
  <circle cx="573.67" cy="146.31" r="8" fill="#15b8c8" stroke="#171717" stroke-width="3"/>
  <circle cx="599.33" cy="185.58" r="8" fill="#15b8c8" stroke="#171717" stroke-width="3"/>
  <circle cx="625" cy="185.58" r="8" fill="#15b8c8" stroke="#171717" stroke-width="3"/>
  <circle cx="650.67" cy="185.58" r="8" fill="#15b8c8" stroke="#171717" stroke-width="3"/>
  <circle cx="676.33" cy="185.58" r="8" fill="#15b8c8" stroke="#171717" stroke-width="3"/>
  <circle cx="702" cy="185.58" r="8" fill="#15b8c8" stroke="#171717" stroke-width="3"/>
  <circle cx="727.67" cy="185.58" r="8" fill="#15b8c8" stroke="#171717" stroke-width="3"/>
  <circle cx="753.33" cy="185.58" r="8" fill="#15b8c8" stroke="#171717" stroke-width="3"/>
  <circle cx="779" cy="185.58" r="8" fill="#15b8c8" stroke="#171717" stroke-width="3"/>
  <circle cx="804.67" cy="185.58" r="8" fill="#15b8c8" stroke="#171717" stroke-width="3"/>
  <circle cx="830.33" cy="185.58" r="8" fill="#15b8c8" stroke="#171717" stroke-width="3"/>
  <circle cx="856" cy="185.58" r="8" fill="#15b8c8" stroke="#171717" stroke-width="3"/>
  <text x="86" y="42" font-family="Arial, sans-serif" font-size="18" font-weight="900" fill="#171717">WIT'S HEDGE FUND NAV</text>
  <text x="856" y="42" text-anchor="end" font-family="Arial, sans-serif" font-size="18" font-weight="900" fill="#171717">$10,414.72 (+4.15%)</text>
  <text x="86" y="310" text-anchor="start" font-family="Arial, sans-serif" font-size="15" font-weight="900" fill="#68635d">May 16</text>
  <text x="856" y="310" text-anchor="end" font-family="Arial, sans-serif" font-size="15" font-weight="900" fill="#68635d">Jun 15</text>
  <text x="450" y="328" text-anchor="middle" font-family="Arial, sans-serif" font-size="12" font-weight="800" fill="#9a948c">fake returns, real price marks</text>
</svg>
