<svg xmlns="http://www.w3.org/2000/svg" viewBox="0 0 1200 720" role="img" aria-labelledby="title desc">
  <title id="title">Front page terminal meme</title>
  <desc id="desc">A fake terminal converts front page discourse into a hedge fund portfolio.</desc>
  <rect width="1200" height="720" fill="#fff9ee"/>
  <path d="M0 92h1200M0 184h1200M0 276h1200M0 368h1200M0 460h1200M0 552h1200M0 644h1200M96 0v720M192 0v720M288 0v720M384 0v720M480 0v720M576 0v720M672 0v720M768 0v720M864 0v720M960 0v720M1056 0v720" stroke="#f2c94c" stroke-width="2" opacity=".42"/>
  <rect x="70" y="54" width="1060" height="612" rx="0" fill="#171717" stroke="#171717" stroke-width="12"/>
  <rect x="92" y="86" width="1016" height="548" fill="#fffef8" stroke="#171717" stroke-width="6"/>
  <rect x="92" y="86" width="1016" height="70" fill="#15b8c8" stroke="#171717" stroke-width="6"/>
  <circle cx="134" cy="121" r="13" fill="#ff5a7a" stroke="#171717" stroke-width="5"/>
  <circle cx="178" cy="121" r="13" fill="#f2c94c" stroke="#171717" stroke-width="5"/>
  <circle cx="222" cy="121" r="13" fill="#35b779" stroke="#171717" stroke-width="5"/>
  <text x="600" y="132" text-anchor="middle" font-family="Inter, Arial, sans-serif" font-size="28" font-weight="900" fill="#171717">WIT_ORACLE.EXE</text>
  <rect x="126" y="194" width="430" height="330" fill="#ffffff" stroke="#171717" stroke-width="6"/>
  <text x="154" y="242" font-family="Inter, Arial, sans-serif" font-size="30" font-weight="900" fill="#171717">FRONT PAGE INPUT</text>
  <g font-family="Inter, Arial, sans-serif" font-size="24" font-weight="800" fill="#171717">
    <text x="154" y="298">HN: AI psychosis</text>
    <text x="154" y="340">HN: Gutenberg rising</text>
    <text x="154" y="382">HN: N64 fog market</text>
    <text x="154" y="424">Reddit: no prices listed</text>
    <text x="154" y="466">GitHub: skills everywhere</text>
  </g>
  <path d="M585 360h120" stroke="#171717" stroke-width="10"/>
  <path d="M690 330l58 30-58 30z" fill="#ff5a7a" stroke="#171717" stroke-width="6"/>
  <rect x="738" y="194" width="330" height="330" fill="#f2fbf7" stroke="#171717" stroke-width="6"/>
  <text x="766" y="242" font-family="Inter, Arial, sans-serif" font-size="30" font-weight="900" fill="#171717">OUTPUT</text>
  <rect x="766" y="278" width="274" height="58" fill="#fff" stroke="#171717" stroke-width="5"/>
  <rect x="766" y="362" width="274" height="58" fill="#fff" stroke="#171717" stroke-width="5"/>
  <rect x="766" y="446" width="274" height="58" fill="#fff" stroke="#171717" stroke-width="5"/>
  <g font-family="Inter, Arial, sans-serif" font-size="25" font-weight="900" fill="#171717">
    <text x="790" y="315">BUY MSFT</text>
    <text x="790" y="399">BUY NTDOY</text>
    <text x="790" y="483">BUY SPOT</text>
  </g>
  <path d="M154 586h168l48-48 54 48h256l54-86 58 86h248" fill="none" stroke="#15b8c8" stroke-width="10" stroke-linejoin="round"/>
  <text x="154" y="624" font-family="Inter, Arial, sans-serif" font-size="26" font-weight="900" fill="#171717">VIBE INDEX: OVERCONFIDENT BUT PROPERLY MARKED</text>
</svg>
