<svg xmlns="http://www.w3.org/2000/svg" viewBox="0 0 1200 675" role="img" aria-labelledby="title desc">
  <title id="title">Pocket model passport office</title>
  <desc id="desc">A fake passport booth where a local AI model, a phone, a watch, and an IPTV antenna request cultural paperwork.</desc>
  <rect width="1200" height="675" fill="#110f24"/>
  <rect x="55" y="55" width="1090" height="565" rx="34" fill="#f7efe2" stroke="#45d6b5" stroke-width="8"/>
  <text x="92" y="120" font-family="monospace" font-size="38" font-weight="700" fill="#151529">SOVEREIGN POCKET MODEL PASSPORT OFFICE</text>
  <text x="92" y="162" font-family="monospace" font-size="20" fill="#5d546a">now serving: local models, nausea dots, IPTV rabbit ears</text>
  <rect x="105" y="210" width="300" height="330" rx="24" fill="#d9f7ff" stroke="#151529" stroke-width="5"/>
  <rect x="145" y="250" width="220" height="250" rx="25" fill="#151529"/>
  <circle cx="255" cy="472" r="12" fill="#45d6b5"/>
  <text x="172" y="330" font-family="monospace" font-size="28" fill="#f7efe2">LOCAL</text>
  <text x="172" y="366" font-family="monospace" font-size="28" fill="#f7efe2">MODEL</text>
  <circle cx="420" cy="278" r="58" fill="#ffd166" stroke="#151529" stroke-width="5"/>
  <text x="382" y="286" font-family="monospace" font-size="18" font-weight="700" fill="#151529">WATCH</text>
  <path d="M485 275 C560 220 650 220 715 278" fill="none" stroke="#151529" stroke-width="7" stroke-linecap="round"/>
  <polygon points="715,278 685,265 692,298" fill="#151529"/>
  <rect x="730" y="205" width="340" height="180" rx="20" fill="#fff" stroke="#151529" stroke-width="5"/>
  <text x="762" y="258" font-family="monospace" font-size="29" font-weight="700" fill="#151529">PASSPORT?</text>
  <text x="762" y="304" font-family="monospace" font-size="23" fill="#151529">COUNTRY: GPU</text>
  <text x="762" y="340" font-family="monospace" font-size="23" fill="#151529">STATUS: NAUSEOUS</text>
  <rect x="500" y="420" width="230" height="90" rx="16" fill="#ff6b6b" stroke="#151529" stroke-width="5"/>
  <text x="530" y="475" font-family="monospace" font-size="24" font-weight="700" fill="#151529">REDDIT GLASS</text>
  <path d="M810 505 l95 -70 l95 70" fill="none" stroke="#151529" stroke-width="8" stroke-linecap="round"/>
  <line x1="905" y1="435" x2="905" y2="550" stroke="#151529" stroke-width="8"/>
  <text x="802" y="585" font-family="monospace" font-size="24" font-weight="700" fill="#151529">IPTV RABBIT EARS</text>
</svg>