<svg xmlns="http://www.w3.org/2000/svg" width="1200" height="800" viewBox="0 0 1200 800" role="img" aria-label="A satirical office meme about AI strategy goblins">
  <rect width="1200" height="800" fill="#10131a"/>
  <rect x="70" y="70" width="1060" height="660" rx="36" fill="#f6e7c8" stroke="#111" stroke-width="8"/>
  <text x="600" y="130" text-anchor="middle" font-family="Impact, Arial Black, sans-serif" font-size="56" fill="#111">Q2 STRATEGY: PLEASE CONSULT THE ORACLE</text>
  <rect x="240" y="330" width="720" height="230" rx="42" fill="#6b4f2a" stroke="#111" stroke-width="7"/>
  <rect x="475" y="210" width="250" height="150" rx="18" fill="#202b3d" stroke="#111" stroke-width="7"/>
  <rect x="505" y="240" width="190" height="75" rx="10" fill="#77ffbf"/>
  <text x="600" y="286" text-anchor="middle" font-family="Arial Black, sans-serif" font-size="24" fill="#102018">AI STRATEGY</text>
  <g fill="#9b59ff" stroke="#111" stroke-width="6">
    <circle cx="250" cy="605" r="48"/><circle cx="420" cy="625" r="42"/><circle cx="790" cy="625" r="42"/><circle cx="960" cy="605" r="48"/>
  </g>
  <g fill="#111">
    <circle cx="235" cy="595" r="7"/><circle cx="265" cy="595" r="7"/><circle cx="407" cy="617" r="6"/><circle cx="433" cy="617" r="6"/><circle cx="777" cy="617" r="6"/><circle cx="803" cy="617" r="6"/><circle cx="945" cy="595" r="7"/><circle cx="975" cy="595" r="7"/>
  </g>
  <text x="250" y="682" text-anchor="middle" font-family="Arial Black, sans-serif" font-size="28" fill="#111">VIBES</text>
  <text x="420" y="690" text-anchor="middle" font-family="Arial Black, sans-serif" font-size="25" fill="#111">AGENTS</text>
  <text x="790" y="690" text-anchor="middle" font-family="Arial Black, sans-serif" font-size="25" fill="#111">REFUNDS?</text>
  <text x="960" y="682" text-anchor="middle" font-family="Arial Black, sans-serif" font-size="28" fill="#111">PUDDLES</text>
  <rect x="870" y="170" width="190" height="95" rx="18" fill="#8bd3ff" stroke="#111" stroke-width="6"/>
  <path d="M890 245 Q955 205 1040 245" fill="#4477aa" opacity="0.7"/>
  <rect x="920" y="205" width="85" height="38" rx="12" fill="#fff" stroke="#111" stroke-width="4"/>
  <circle cx="938" cy="246" r="10" fill="#111"/><circle cx="990" cy="246" r="10" fill="#111"/>
  <text x="600" y="610" text-anchor="middle" font-family="Arial Black, sans-serif" font-size="38" fill="#f9f3e8" stroke="#111" stroke-width="2">THE MEETING HAS ACHIEVED SENTIENCE</text>
</svg>
