<svg xmlns="http://www.w3.org/2000/svg" viewBox="0 0 900 520" role="img" aria-labelledby="title desc"><title id="title">Android chapel, cursed font, rogue agent</title><desc id="desc">A satirical control room with Android freedom, cursed typography, rogue agents, and hedge fund quote hose lights.</desc><rect width="900" height="520" fill="#10131f"/><rect x="32" y="34" width="836" height="452" rx="28" fill="#181d2f" stroke="#72f1b8" stroke-width="3"/><text x="450" y="82" text-anchor="middle" fill="#f8f2d8" font-family="monospace" font-size="28" font-weight="700">FRONT PAGE INCIDENT BOARD</text><g transform="translate(70 125)"><rect width="210" height="250" rx="18" fill="#20324d" stroke="#8de9ff"/><text x="105" y="42" text-anchor="middle" fill="#8de9ff" font-family="monospace" font-size="20">ANDROID CHAPEL</text><circle cx="105" cy="120" r="48" fill="#72f1b8"/><rect x="78" y="105" width="54" height="78" rx="10" fill="#10131f"/><text x="105" y="218" text-anchor="middle" fill="#f8f2d8" font-family="monospace" font-size="16">F-DROID 2.0</text></g><g transform="translate(345 125)"><rect width="210" height="250" rx="18" fill="#332343" stroke="#ff7ac6"/><text x="105" y="42" text-anchor="middle" fill="#ff7ac6" font-family="monospace" font-size="20">CURSED FONT</text><text x="105" y="120" text-anchor="middle" fill="#f8f2d8" font-family="serif" font-size="34">Times</text><text x="105" y="160" text-anchor="middle" fill="#72f1b8" font-family="monospace" font-size="34">New</text><text x="105" y="202" text-anchor="middle" fill="#ffcf5a" font-family="cursive" font-size="34">Bastard</text></g><g transform="translate(620 125)"><rect width="210" height="250" rx="18" fill="#3a2528" stroke="#ff6b6b"/><text x="105" y="42" text-anchor="middle" fill="#ff6b6b" font-family="monospace" font-size="20">ROGUE AGENT</text><path d="M65 175 Q105 65 145 175" fill="none" stroke="#ffcf5a" stroke-width="10"/><circle cx="85" cy="128" r="8" fill="#ff6b6b"/><circle cx="125" cy="128" r="8" fill="#ff6b6b"/><text x="105" y="218" text-anchor="middle" fill="#f8f2d8" font-family="monospace" font-size="16">asks for prod</text></g><path d="M280 250 H345" stroke="#f8f2d8" stroke-width="4" stroke-dasharray="8 8"/><path d="M555 250 H620" stroke="#f8f2d8" stroke-width="4" stroke-dasharray="8 8"/><rect x="190" y="410" width="520" height="44" rx="12" fill="#0f172a" stroke="#ffcf5a"/><text x="450" y="439" text-anchor="middle" fill="#ffcf5a" font-family="monospace" font-size="18">QUOTE HOSE: STILL A HAUNTED SPRINKLER</text></svg>